<?xml version="1.0" encoding="UTF-8"?>
<!-- Created with Inkscape (http://www.inkscape.org/) -->
<svg width="500" height="500" version="1.1" viewBox="0 0 132.29166 132.29167" xmlns="http://www.w3.org/2000/svg" xmlns:cc="http://creativecommons.org/ns#" xmlns:dc="http://purl.org/dc/elements/1.1/" xmlns:rdf="http://www.w3.org/1999/02/22-rdf-syntax-ns#">
 <metadata>
  <rdf:RDF>
   <cc:Work rdf:about="">
    <dc:format>image/svg+xml</dc:format>
    <dc:type rdf:resource="http://purl.org/dc/dcmitype/StillImage"/>
    <dc:title/>
   </cc:Work>
  </rdf:RDF>
 </metadata>
 <g transform="translate(0 -164.71)">
  <path d="m66.09 165.47c-35.642 0-64.549 29.305-64.549 65.391 0 36.086 28.906 65.393 64.549 65.393 35.642 0 64.549-29.307 64.549-65.393 0-36.086-28.906-65.391-64.549-65.391zm0 3c33.999 0 61.549 27.905 61.549 62.391s-27.549 62.393-61.549 62.393c-33.999 0-61.549-27.907-61.549-62.393s27.549-62.391 61.549-62.391z" color="#000000" color-rendering="auto" dominant-baseline="auto" fill="#fff" image-rendering="auto" shape-rendering="auto" solid-color="#000000" style="font-feature-settings:normal;font-variant-alternates:normal;font-variant-caps:normal;font-variant-ligatures:normal;font-variant-numeric:normal;font-variant-position:normal;isolation:auto;mix-blend-mode:normal;shape-padding:0;text-decoration-color:#000000;text-decoration-line:none;text-decoration-style:solid;text-indent:0;text-orientation:mixed;text-transform:none;white-space:normal"/>
  <g fill="#fff">
   <g>
    <path d="m36.857 221.91a1.5002 1.5002 0 0 0 -1.5 1.5v17.398a1.5002 1.5002 0 0 0 1.5 1.5h23.385a1.5002 1.5002 0 0 0 1.5 -1.5v-17.398a1.5002 1.5002 0 0 0 -1.5 -1.5zm1.5 3h20.385v14.398h-20.385z" color="#000000" color-rendering="auto" dominant-baseline="auto" image-rendering="auto" shape-rendering="auto" solid-color="#000000" style="font-feature-settings:normal;font-variant-alternates:normal;font-variant-caps:normal;font-variant-ligatures:normal;font-variant-numeric:normal;font-variant-position:normal;isolation:auto;mix-blend-mode:normal;shape-padding:0;text-decoration-color:#000000;text-decoration-line:none;text-decoration-style:solid;text-indent:0;text-orientation:mixed;text-transform:none;white-space:normal"/>
    <path d="m71.848 221.45a1.5002 1.5002 0 0 0 -1.5 1.5v17.398a1.5002 1.5002 0 0 0 1.5 1.5h23.387a1.5002 1.5002 0 0 0 1.5 -1.5v-17.398a1.5002 1.5002 0 0 0 -1.5 -1.5zm1.5 3h20.387v14.398h-20.387z" color="#000000" color-rendering="auto" dominant-baseline="auto" image-rendering="auto" shape-rendering="auto" solid-color="#000000" style="font-feature-settings:normal;font-variant-alternates:normal;font-variant-caps:normal;font-variant-ligatures:normal;font-variant-numeric:normal;font-variant-position:normal;isolation:auto;mix-blend-mode:normal;shape-padding:0;text-decoration-color:#000000;text-decoration-line:none;text-decoration-style:solid;text-indent:0;text-orientation:mixed;text-transform:none;white-space:normal"/>
    <path d="m26.834 217.86c-3.2603-12.043 2.5422-26.382 14.238-31.47 10.24-4.9936 21.75-6.5428 33.002-7.2297 5.7044-0.16111 11.627 0.44664 16.744 3.1527 5.0401 7.3852 10.422 14.537 15.25 22.067 0.0306 4.5246 0.0612 9.0491 0.0918 13.574-2.6919-0.15602-7.2627 3.6734-8.5278-0.21367-0.82321-4.8503-2.3361-9.5994-3.4303-14.41-2.0675-1.4977-5.311-2.2382-7.8088-3.5074-5.1112-2.3971-10.798-1.1163-16.211-1.0923-4.6349 0.15981-9.3752 9e-3 -13.845-1.2787-2.1259 1.4763-2.4056 5.4981-6.0692 4.7533-4.2476 0.57941-8.5092-0.8684-12.748-0.11298-3.8431 2.8435-3.4335 7.986-3.3895 12.249 0 1.6098 1e-6 3.2195 1e-6 4.8293-2.4077-0.55643-5.0546-0.0952-7.2965-1.3096z"/>
   </g>
   <path d="m100.93 232.55c-1.0328 5.6066 0.45976 13.11-3.9708 17.238-3.7387 0.44731-8.3201 1.0731-7.5172 6.1401-1.6922 5.0475 0.06622 12.089-5.2298 15.028-2.3269 1.7024-4.405 4.588-7.5995 4.0276-7.7656 0.1676-15.531 0.33521-23.297 0.50281-2.6926-2.885-6.6364-5.063-8.573-8.3751-0.97765-5.066-1.9553-10.132-2.933-15.198l-8.1384-3.274c-0.93544-5.5815-1.8709-11.163-2.8063-16.744-3.3478-1.7838-5.9698-1.4003-6.3896 2.8054 1.3683 5.9082 2.6434 12.059 4.8881 17.717 2.3393 3.1172 8.353 1.3566 7.8385 6.9529 1.3166 4.5595 1.9221 9.6977 6.2421 12.478 4.1636 4.0192 8.3272 8.0384 12.491 12.058 6.2363 0.0312 12.473 0.0623 18.709 0.0935 5.7761-5.0432 11.922-9.8543 17.467-15.042 1.1934-4.5898 2.3867-9.1796 3.5801-13.769 5.1381-0.6264 7.9732-3.4774 8.4775-8.5798 1.1622-4.1213 2.6914-8.2277 3.6256-12.358-0.35493-1.6268-0.70986-3.2535-1.0648-4.8803-1.9332 0.87308-3.8665 1.7462-5.7997 2.6192"/>
   <path d="m56.781 259.29a3.0003 3.0003 0 0 0 -3 3v0.8418a3.0003 3.0003 0 0 0 3 3h10.824a3.0003 3.0003 0 0 0 0.5957 -0.0606c0.19986-0.0405 1.5262 0.0751 3.1074 0.17774 0.79059 0.0513 1.6847 0.0856 2.7383-0.17188 1.0535-0.25749 2.3361-0.96943 3.1055-2.1367a3.0003 3.0003 0 0 0 -2.5039 -4.6504z" color="#000000" color-rendering="auto" dominant-baseline="auto" image-rendering="auto" shape-rendering="auto" solid-color="#000000" style="font-feature-settings:normal;font-variant-alternates:normal;font-variant-caps:normal;font-variant-ligatures:normal;font-variant-numeric:normal;font-variant-position:normal;isolation:auto;mix-blend-mode:normal;shape-padding:0;text-decoration-color:#000000;text-decoration-line:none;text-decoration-style:solid;text-indent:0;text-orientation:mixed;text-transform:none;white-space:normal"/>
  </g>
 </g>
</svg>
