<?xml version="1.0" encoding="UTF-8" standalone="no"?>
<!-- Generator: Adobe Illustrator 16.0.0, SVG Export Plug-In . SVG Version: 6.00 Build 0)  -->

<svg
   xmlns:dc="http://purl.org/dc/elements/1.1/"
   xmlns:cc="http://creativecommons.org/ns#"
   xmlns:rdf="http://www.w3.org/1999/02/22-rdf-syntax-ns#"
   xmlns:svg="http://www.w3.org/2000/svg"
   xmlns="http://www.w3.org/2000/svg"
   xmlns:sodipodi="http://sodipodi.sourceforge.net/DTD/sodipodi-0.dtd"
   xmlns:inkscape="http://www.inkscape.org/namespaces/inkscape"
   version="1.1"
   id="Capa_1"
   x="0px"
   y="0px"
   width="512px"
   height="512px"
   viewBox="0 0 530 530"
   style="enable-background:new 0 0 530 530;"
   xml:space="preserve"
   sodipodi:docname="sltav.svg"
   inkscape:version="0.92.1 r15371"><metadata
     id="metadata4530"><rdf:RDF><cc:Work
         rdf:about=""><dc:format>image/svg+xml</dc:format><dc:type
           rdf:resource="http://purl.org/dc/dcmitype/StillImage" /><dc:title></dc:title></cc:Work></rdf:RDF></metadata><defs
     id="defs4528" /><sodipodi:namedview
     pagecolor="#ffffff"
     bordercolor="#666666"
     borderopacity="1"
     objecttolerance="10"
     gridtolerance="10"
     guidetolerance="10"
     inkscape:pageopacity="0"
     inkscape:pageshadow="2"
     inkscape:window-width="1369"
     inkscape:window-height="900"
     id="namedview4526"
     showgrid="false"
     inkscape:zoom="0.73533951"
     inkscape:cx="13.200866"
     inkscape:cy="155.10227"
     inkscape:window-x="32"
     inkscape:window-y="32"
     inkscape:window-maximized="0"
     inkscape:current-layer="Capa_1" /><g
     id="g4698"
     style="fill:#f9f9f9"
     transform="translate(0,-8.28125)"><g
       style="fill:#f9f9f9"
       id="g4495" /><g
       style="fill:#f9f9f9"
       id="g4497" /><g
       style="fill:#f9f9f9"
       id="g4499" /><g
       style="fill:#f9f9f9"
       id="g4501" /><g
       style="fill:#f9f9f9"
       id="g4503" /><g
       style="fill:#f9f9f9"
       id="g4505" /><g
       style="fill:#f9f9f9"
       id="g4507" /><g
       style="fill:#f9f9f9"
       id="g4509" /><g
       style="fill:#f9f9f9"
       id="g4511" /><g
       style="fill:#f9f9f9"
       id="g4513" /><g
       style="fill:#f9f9f9"
       id="g4515" /><g
       style="fill:#f9f9f9"
       id="g4517" /><g
       style="fill:#f9f9f9"
       id="g4519" /><g
       style="fill:#f9f9f9"
       id="g4521" /><g
       style="fill:#f9f9f9"
       id="g4523" /><g
       transform="translate(-1.0351562,90.058594)"
       id="g4547"
       style="fill:#f9f9f9"><g
         style="fill:#f9f9f9"
         id="g4491" /><path
         id="path4553"
         style="opacity:0.98999999;fill:#f9f9f9;fill-rule:evenodd;stroke:none;stroke-width:0;stroke-linecap:round;stroke-miterlimit:4;stroke-dasharray:none"
         d="m 307.95898,183.74022 c 0.90827,0.59686 -0.35645,1.5188 -0.99202,1.5096 -1.72237,-0.0249 -2.42348,-2.0794 -2.02718,-3.49365 0.70889,-2.52978 3.72214,-3.43238 5.99528,-2.54476 3.33593,1.30263 4.46528,5.38503 3.06233,8.49691 -1.86991,4.14765 -7.05479,5.50806 -10.99853,3.57991 -4.9628,-2.42637 -6.55586,-8.72776 -4.09749,-13.50016 2.97742,-5.78002 10.40253,-7.60657 16.00179,-4.61507 6.59854,3.52539 8.6591,12.07842 5.13264,18.50342 -4.07143,7.41793 -13.75504,9.71284 -21.00505,5.65022 -8.23792,-4.61621 -10.76742,-15.43219 -6.16779,-23.50668 5.1601,-9.05835 17.10972,-11.82263 26.00831,-6.68537 9.87911,5.70334 12.8783,18.78755 7.20294,28.50994 M 202.37303,183.74022 c -3.73583,5.05868 -3.80421,-8.41513 2.97608,-4.52881 10.2975,5.53697 -3.63774,18.92795 -10.36789,10.33891 -5.99888,-5.76779 -1.62936,-16.79376 6.46387,-17.60945 9.93826,-2.14681 17.94043,9.73913 13.60075,18.50767 -4.22307,10.7049 -20.46601,11.77576 -26.68695,2.39319 -7.44222,-9.39602 -1.81806,-24.61622 9.63648,-27.44559 11.1873,-3.7724 23.90035,4.83355 25.11099,16.45693 0.70852,4.71773 -0.19903,9.6712 -2.6181,13.79146 m 69.35549,-33.12501 c 16.88049,0.0319 33.76419,-0.0639 50.64268,0.0479 6.09627,0.4065 9.21877,6.78277 8.36123,12.28504 -0.2231,7.50237 0.47965,15.09667 -0.41748,22.53322 -1.50379,5.6367 -7.68409,7.10758 -12.77736,6.54006 -15.89327,-0.12331 -31.81761,0.24824 -47.69124,-0.18862 -5.65892,-0.94832 -8.16031,-6.9672 -7.43424,-12.14434 0.2231,-7.50237 -0.47965,-15.09667 0.41748,-22.53323 1.12821,-3.8229 4.91241,-6.6054 8.89893,-6.54005 z m -103.51564,0 c 16.88049,0.0319 33.76419,-0.0639 50.64268,0.0479 6.09627,0.4065 9.21877,6.78277 8.36123,12.28504 -0.2231,7.50237 0.47965,15.09667 -0.41748,22.53322 -1.50379,5.6367 -7.68409,7.10758 -12.77736,6.54006 -15.89327,-0.12331 -31.81761,0.24824 -47.69124,-0.18862 -5.65892,-0.94832 -8.16031,-6.9672 -7.43424,-12.14434 0.2231,-7.50237 -0.47965,-15.09667 0.41748,-22.53323 1.12821,-3.8229 4.91241,-6.6054 8.89893,-6.54005 z M 112.15,196.5 c 4.8,19 17.1,33.8 31.9,38.9 17.3,56.6 61.5,115.4 121.5,115.4 60,0 104.2,-58.8 121.4,-115.4 14.7,-5.1 27.1,-19.9 31.9,-38.9 6.8,-27.2 -3.801,-52.4 -24.101,-58.7 4.5,-6.6 2.25391,-11.02969 2.25391,-18.42969 C 397.00291,108.27031 392.85,97 389.049,86.7 385.35,76.5 382.97422,67.375781 375.97422,58.675781 369.27422,50.275781 359.85,44.4 350.75,37.8 342.15,31.5 336.31584,22.875781 325.91484,18.375781 316.11484,14.175781 303.75,14.9 292.65,12.8 c -10.5,-2.1 -20.5,-5.5539063 -31.8,-5.5539063 -11.3,0 -21.3,3.4539063 -31.8,5.5539063 -11,2.2 -24.4,-0.694531 -34.3,3.505469 -10.4,4.4 -15.2,15.094531 -23.8,21.494531 -9.1,6.7 -20.59453,12.475781 -27.29453,20.875781 -6.9,8.7 -7.10547,17.824219 -11.00547,28.024219 -3.7,10.2 0.32734,16.19453 0.32734,27.49453 0,8.6 -8.72734,19.00547 -3.92734,26.70547 -15.4,9.3 -22.9,31.7 -16.9,55.6 z m 287,-4.9 c -3.8,15.3 -13.9,24.4 -21.7,25.5 l -6.6,0.9 -1.7,6.4 c -14.4,52.9 -54.601,106.3 -103.7,106.3 -49.1,0 -89.2,-53.4 -103.7,-106.3 l -1.7,-6.4 -6.6,-0.9 c -7.9,-1.1 -17.9,-10.2 -21.7,-25.5 -2.8,-11.4 -1.1,-22.6 3.7,-29.3 2,-2.7 4.4,-4.8 7.3,-5.5 0.7,-0.1 1.3,-0.2 2.2,-0.2 0.5,0 1.1,0 1.6,0.1 l 9.5,0.9 1.4,-9.4 c 3.7,-24.8 12.5,-46.3 25,-63.6 2.2,4.9 3.47031,8.824219 8.47031,11.824219 4.7,2.9 12.32969,1.975781 18.32969,4.175781 5.4,2 6.32969,6.68906 12.42969,8.08906 5.7,1.2 15.17031,-1.08906 21.37031,-0.58906 5.8,0.5 10.26484,5.42422 16.46484,5.42422 6.2,0 12.73516,-4.72422 18.53516,-5.42422 6.1,-0.7 14.73416,2.82422 20.23416,1.62422 6.101,-1.3 8.16484,-7.12422 13.46484,-9.12422 6,-2.2 14.56584,-2.410938 19.36484,-5.210938 5.7,-3.5 4.93416,-8.289062 8.33516,-12.489062 1.2,-1.4 2.9,-2.7 4.8,-3.8 14.7,18 25.101,41.6 29.2,69 l 1.4,9.4 9.5,-0.9 c 1,-0.1 1.899,0 2.699,0.1 h 1.101 c 10.001,2.6 15.001,18.8 11.001,34.9 z"
         inkscape:connector-curvature="0" /></g></g><ellipse
     style="opacity:0.98999999;fill:none;stroke:#f9f9f9;stroke-width:13.56896019;stroke-linecap:round;stroke-linejoin:round;stroke-miterlimit:4;stroke-dasharray:none;stroke-opacity:1"
     id="path4500"
     cx="259.72534"
     cy="253.38193"
     rx="214.14609"
     ry="219.77699" /></svg>