<?xml version="1.0" encoding="UTF-8" standalone="no"?>
<!-- Created with Inkscape (http://www.inkscape.org/) -->

<svg
   xmlns:dc="http://purl.org/dc/elements/1.1/"
   xmlns:cc="http://creativecommons.org/ns#"
   xmlns:rdf="http://www.w3.org/1999/02/22-rdf-syntax-ns#"
   xmlns:svg="http://www.w3.org/2000/svg"
   xmlns="http://www.w3.org/2000/svg"
   xmlns:sodipodi="http://sodipodi.sourceforge.net/DTD/sodipodi-0.dtd"
   xmlns:inkscape="http://www.inkscape.org/namespaces/inkscape"
   version="1.1"
   id="svg4451"
   width="640"
   height="426.56"
   viewBox="0 0 640 426.56"
   sodipodi:docname="cityline.svg"
   inkscape:version="0.92.1 r15371">
  <metadata
     id="metadata4457">
    <rdf:RDF>
      <cc:Work
         rdf:about="">
        <dc:format>image/svg+xml</dc:format>
        <dc:type
           rdf:resource="http://purl.org/dc/dcmitype/StillImage" />
        <dc:title></dc:title>
      </cc:Work>
    </rdf:RDF>
  </metadata>
  <defs
     id="defs4455" />
  <sodipodi:namedview
     pagecolor="#ffffff"
     bordercolor="#666666"
     borderopacity="1"
     objecttolerance="10"
     gridtolerance="10"
     guidetolerance="10"
     inkscape:pageopacity="0"
     inkscape:pageshadow="2"
     inkscape:window-width="1603"
     inkscape:window-height="1129"
     id="namedview4453"
     showgrid="false"
     inkscape:zoom="0.55326332"
     inkscape:cx="63.341018"
     inkscape:cy="213.28"
     inkscape:window-x="1484"
     inkscape:window-y="163"
     inkscape:window-maximized="0"
     inkscape:current-layer="svg4451" />
  <path
     style="opacity:1;fill:#000000;fill-opacity:1;stroke:#000000;stroke-width:0;stroke-linecap:round;stroke-linejoin:round;stroke-miterlimit:4;stroke-dasharray:none;stroke-opacity:1"
     d="m 309.61388,46.68111 -7.93555,3.36945 2.05859,304.23988 a 131.87541,131.87541 0 0 1 -6.64453,-1.99219 l -2.04101,-299.43345 -7.9336,3.36907 2.01563,293.44139 a 131.87541,131.87541 0 0 1 -6.6543,-2.93934 l -1.98828,-287.68744 -7.93555,3.36907 1.95508,280.51163 a 131.87541,131.87541 0 0 1 -6.65625,-3.6892 l -1.92383,-274.00781 -7.93554,3.36907 v 34.4315 A 161.22034,161.22034 0 0 0 174.96738,243.96452 161.22034,161.22034 0 0 0 336.1881,405.18329 161.22034,161.22034 0 0 0 497.40684,243.96452 161.22034,161.22034 0 0 0 393.05138,93.18329 V 68.60124 Z m 83.4375,61.15238 a 131.87541,131.87541 0 0 1 75.01172,118.8068 131.87541,131.87541 0 0 1 -27.73047,80.64038 l -1.28125,-132.89612 -22,-5.77966 v -40.44888 l -24,-6.30501 z m -45.38477,6.2366 1.94531,243.61701 a 131.87541,131.87541 0 0 1 -5.03515,0.31748 l -1.94336,-241.79679 z m -11.05664,4.69531 1.93945,239.61486 a 131.87541,131.87541 0 0 1 -2.36132,0.13607 131.87541,131.87541 0 0 1 -2.67578,-0.13229 l -1.93555,-237.48056 z m -78.61523,1.86519 v 85.5137 l -6.2168,-1.63313 -3.27148,1.38898 1.29687,120.02116 a 131.87541,131.87541 0 0 1 -2.76562,-2.32403 l -1.26563,-116.5372 -3.26953,1.39087 1.22266,112.06224 a 131.87541,131.87541 0 0 1 -2.77149,-2.92195 l -1.18359,-107.98035 -3.27149,1.3886 1.13672,103.0216 a 131.87541,131.87541 0 0 1 -2.77734,-3.15817 l -1.0918,-98.70312 -3.27148,1.3886 1.0332,92.9571 a 131.87541,131.87541 0 0 1 -27.21676,-79.8652 131.87541,131.87541 0 0 1 53.68356,-106.0097 z m 67.55664,2.83011 1.92383,234.61909 a 131.87541,131.87541 0 0 1 -5.03907,-0.52951 l -1.91601,-231.95301 z m 61.36718,40.33966 1.70899,183.66803 a 131.87541,131.87541 0 0 1 -3.77344,1.42186 L 383.13732,165.4059 Z m -8.30859,3.52932 1.72461,183.26362 a 131.87541,131.87541 0 0 1 -3.76953,1.41997 l -1.73438,-183.07805 z m -8.30859,3.52743 1.74023,182.49223 a 131.87541,131.87541 0 0 1 -3.77734,0.96869 L 366.52208,172.46266 Z M 252.57091,328.2476 a 131.87541,131.87541 0 0 0 5.32422,4.1915 131.87541,131.87541 0 0 1 -5.32422,-4.1915 z m 24.19531,15.92958 a 131.87541,131.87541 0 0 0 0.98633,0.47093 131.87541,131.87541 0 0 1 -0.98633,-0.47093 z"
     id="path4538"
     inkscape:connector-curvature="0" />
</svg>
