<?xml version="1.0" encoding="UTF-8" standalone="no"?>
<!-- Created with Inkscape (http://www.inkscape.org/) -->

<svg
   xmlns:dc="http://purl.org/dc/elements/1.1/"
   xmlns:cc="http://creativecommons.org/ns#"
   xmlns:rdf="http://www.w3.org/1999/02/22-rdf-syntax-ns#"
   xmlns:svg="http://www.w3.org/2000/svg"
   xmlns="http://www.w3.org/2000/svg"
   xmlns:sodipodi="http://sodipodi.sourceforge.net/DTD/sodipodi-0.dtd"
   xmlns:inkscape="http://www.inkscape.org/namespaces/inkscape"
   width="210mm"
   height="297mm"
   viewBox="0 0 210 297"
   version="1.1"
   id="svg8"
   inkscape:version="0.92.1 r15371"
   sodipodi:docname="Inkscape Logo svg.svg">
  <defs
     id="defs2" />
  <sodipodi:namedview
     id="base"
     pagecolor="#ffffff"
     bordercolor="#666666"
     borderopacity="1.0"
     inkscape:pageopacity="0.0"
     inkscape:pageshadow="2"
     inkscape:zoom="2.918135"
     inkscape:cx="194.68654"
     inkscape:cy="806.47273"
     inkscape:document-units="mm"
     inkscape:current-layer="layer1"
     showgrid="false"
     inkscape:object-nodes="false"
     inkscape:snap-nodes="false"
     inkscape:window-width="2380"
     inkscape:window-height="1874"
     inkscape:window-x="405"
     inkscape:window-y="127"
     inkscape:window-maximized="0" />
  <metadata
     id="metadata5">
    <rdf:RDF>
      <cc:Work
         rdf:about="">
        <dc:format>image/svg+xml</dc:format>
        <dc:type
           rdf:resource="http://purl.org/dc/dcmitype/StillImage" />
        <dc:title></dc:title>
      </cc:Work>
    </rdf:RDF>
  </metadata>
  <g
     inkscape:label="Layer 1"
     inkscape:groupmode="layer"
     id="layer1"
     style="opacity:1">
    <path
       style="opacity:1;fill:#000000;stroke:none;stroke-width:0.26458332px;stroke-linecap:butt;stroke-linejoin:miter;stroke-opacity:1"
       d="m 14.948072,95.201013 13.140678,-7.586773 4.610158,13.9397 z"
       id="path3943"
       inkscape:connector-curvature="0" />
    <path
       style="opacity:1;fill:#000000;stroke:none;stroke-width:0.26458332px;stroke-linecap:butt;stroke-linejoin:miter;stroke-opacity:1"
       d="m 111.15975,99.07036 c -17.31771,9.88288 -17.136373,9.88288 -17.136373,9.88288 L 92.48201,91.726201 Z"
       id="path3994"
       inkscape:connector-curvature="0" />
    <path
       style="color:#000000;font-style:normal;font-variant:normal;font-weight:normal;font-stretch:normal;font-size:medium;line-height:normal;font-family:sans-serif;font-variant-ligatures:normal;font-variant-position:normal;font-variant-caps:normal;font-variant-numeric:normal;font-variant-alternates:normal;font-feature-settings:normal;text-indent:0;text-align:start;text-decoration:none;text-decoration-line:none;text-decoration-style:solid;text-decoration-color:#000000;letter-spacing:normal;word-spacing:normal;text-transform:none;writing-mode:lr-tb;direction:ltr;text-orientation:mixed;dominant-baseline:auto;baseline-shift:baseline;text-anchor:start;white-space:normal;shape-padding:0;clip-rule:nonzero;display:inline;overflow:visible;visibility:visible;opacity:1;isolation:auto;mix-blend-mode:normal;color-interpolation:sRGB;color-interpolation-filters:linearRGB;solid-color:#000000;solid-opacity:1;vector-effect:none;fill:#000000;fill-opacity:1;fill-rule:nonzero;stroke:none;stroke-width:15.11811066;stroke-linecap:butt;stroke-linejoin:miter;stroke-miterlimit:4;stroke-dasharray:none;stroke-dashoffset:0;stroke-opacity:1;color-rendering:auto;image-rendering:auto;shape-rendering:auto;text-rendering:auto;enable-background:accumulate"
       d="m 235.01367,117.95898 -3.77539,2.19336 -3.76953,2.19336 -60.72461,35.29102 c -4.55625,2.34648 -8.99863,4.922 -13.30469,7.72851 l -68.761716,39.93946 -0.310546,164.77929 c -0.07899,1.28495 -0.149014,2.58134 -0.195313,3.90625 l -0.0039,0.13086 v 0.26563 0.13281 c 3.06e-4,83.13247 67.693165,150.83372 150.826175,150.83399 83.13301,-2.7e-4 150.83368,-67.70099 150.83398,-150.83399 v -0.043 -0.0762 -0.041 c -0.0227,-2.17964 -0.11248,-4.32734 -0.22851,-6.44727 l 0.3125,-163.38477 -72.41992,-41.55078 -0.006,0.008 c -2.53824,-1.55731 -5.11546,-3.04252 -7.73828,-4.44532 l -0.16797,-0.0977 -0.002,-0.002 -0.0527,-0.0273 z"
       id="path3925"
       inkscape:connector-curvature="0"
       transform="scale(0.26458333)" />
    <path
       style="color:#000000;font-style:normal;font-variant:normal;font-weight:normal;font-stretch:normal;font-size:medium;line-height:normal;font-family:sans-serif;font-variant-ligatures:normal;font-variant-position:normal;font-variant-caps:normal;font-variant-numeric:normal;font-variant-alternates:normal;font-feature-settings:normal;text-indent:0;text-align:start;text-decoration:none;text-decoration-line:none;text-decoration-style:solid;text-decoration-color:#000000;letter-spacing:normal;word-spacing:normal;text-transform:none;writing-mode:lr-tb;direction:ltr;text-orientation:mixed;dominant-baseline:auto;baseline-shift:baseline;text-anchor:start;white-space:normal;shape-padding:0;clip-rule:nonzero;display:inline;overflow:visible;visibility:visible;opacity:1;isolation:auto;mix-blend-mode:normal;color-interpolation:sRGB;color-interpolation-filters:linearRGB;solid-color:#000000;solid-opacity:1;vector-effect:none;fill:#ffffff;fill-opacity:1;fill-rule:nonzero;stroke:none;stroke-width:4;stroke-linecap:butt;stroke-linejoin:miter;stroke-miterlimit:4;stroke-dasharray:none;stroke-dashoffset:0;stroke-opacity:1;color-rendering:auto;image-rendering:auto;shape-rendering:auto;text-rendering:auto;enable-background:accumulate"
       d="m 62.188715,33.364632 -0.997871,0.580326 -16.070336,9.339482 -0.02739,0.01601 -0.02532,0.01344 c -1.179756,0.606161 -2.327719,1.271903 -3.437517,1.998327 l -17.226855,10.005591 -0.0801,42.500248 c -0.02195,0.349877 -0.04047,0.698241 -0.05271,1.048515 v 0.03514 0.03514 c 7.7e-5,20.911929 16.994274,37.908209 37.906213,37.908279 20.911938,-7e-5 37.908211,-16.99635 37.908271,-37.908279 v -0.01138 -0.0098 c -0.006,-0.567727 -0.0286,-1.13638 -0.0605,-1.703255 v -0.0078 l 0.0801,-42.087871 -18.153922,-10.415902 0.05426,0.03307 c -0.68512,-0.423447 -1.382736,-0.824087 -2.093412,-1.203026 l -0.0078,-0.0041 c -5.29e-4,-2.64e-4 -0.0016,2.65e-4 -0.0021,0 z"
       id="path3916"
       inkscape:connector-curvature="0" />
    <path
       style="opacity:1;fill:#ff0000;stroke:none;stroke-width:0.26458332px;stroke-linecap:butt;stroke-linejoin:miter;stroke-opacity:1"
       d="M 76.454939,98.938033 62.441113,106.97262 61.787134,96.695822 Z"
       id="path3945"
       inkscape:connector-curvature="0" />
    <path
       style="opacity:1;fill:#000000;stroke-width:0.26458332"
       d="m 62.19416,35.828588 -16.161287,9.390639 -0.0021,0.0011 c -1.135417,0.581097 -2.239068,1.222277 -3.30626,1.920814 L 26.40043,56.62579 26.32205,98.024895 c -0.02302,0.355415 -0.04074,0.711152 -0.05318,1.067096 7.3e-5,19.831059 16.076306,35.907299 35.907369,35.907369 19.831063,-7e-5 35.907294,-16.07631 35.907368,-35.907369 -0.0065,-0.575392 -0.02683,-1.150546 -0.06098,-1.724962 v -0.0016 L 98.102044,56.428326 80.953221,46.590168 C 80.28264,46.175706 79.598589,45.783443 78.902184,45.41401 l -0.0036,-0.0021 z"
       id="path3908"
       inkscape:connector-curvature="0" />
    <path
       style="opacity:1;fill:#666666;stroke-width:0.26458332"
       d="m 70.18557,54.744379 c -0.727945,0.48125 -1.438105,0.98888 -2.129067,1.521872 0.690962,-0.532992 1.401122,-1.040622 2.129067,-1.521872 z"
       id="path3906"
       inkscape:connector-curvature="0" />
    <path
       style="opacity:1;fill:#666666;stroke-width:0.26458332"
       d="m 69.108112,56.194938 0.02585,0.01963 z"
       id="path3904"
       inkscape:connector-curvature="0" />
    <path
       style="opacity:1;fill:#666666;stroke-width:0.26458332"
       d="m 69.503959,57.868221 c -0.258451,0.220639 -0.513758,0.444937 -0.765845,0.672825 0.252087,-0.227888 0.507394,-0.452186 0.765845,-0.672825 z"
       id="path3902"
       inkscape:connector-curvature="0" />
    <path
       style="opacity:1;fill:#666666;stroke-width:0.26458332"
       d="m 69.090547,58.481102 c 0.02035,0.01892 0.04067,0.03787 0.06098,0.05684 -0.02029,-0.01897 -0.04063,-0.03792 -0.06098,-0.05684 z"
       id="path3900"
       inkscape:connector-curvature="0" />
    <path
       style="opacity:1;fill:#666666;stroke-width:0.26458332"
       d="m 69.4112,60.453592 c -0.195898,0.205438 -0.389353,0.413192 -0.580327,0.623218 0.190974,-0.210026 0.384429,-0.41778 0.580327,-0.623218 z"
       id="path3898"
       inkscape:connector-curvature="0" />
    <path
       style="opacity:1;fill:#666666;stroke-width:0.26458332"
       d="m 69.071169,61.021515 c 0.03332,0.03766 0.06657,0.07538 0.09973,0.113173 -0.03317,-0.03779 -0.06641,-0.07552 -0.09973,-0.113173 z"
       id="path3896"
       inkscape:connector-curvature="0" />
    <path
       style="opacity:1;fill:#666666;stroke-width:0.26458332"
       d="m 69.32981,75.34613 c -0.140936,0.181594 -0.280122,0.364537 -0.417547,0.548804 0.137425,-0.184267 0.276611,-0.36721 0.417547,-0.548804 z"
       id="path3894"
       inkscape:connector-curvature="0" />
    <path
       style="opacity:1;fill:#666666;stroke-width:0.26458332"
       d="m 69.05024,75.839123 c 0.04742,0.06581 0.09462,0.131789 0.141594,0.197921 -0.04697,-0.06613 -0.09417,-0.132109 -0.141594,-0.197921 z"
       id="path3892"
       inkscape:connector-curvature="0" />
    <path
       style="opacity:1;fill:#666666;stroke-width:0.26458332"
       d="m 69.264696,106.47823 c -0.09696,0.17447 -0.192738,0.34944 -0.287319,0.52489 0.09458,-0.17545 0.190357,-0.35042 0.287319,-0.52489 z"
       id="path3890"
       inkscape:connector-curvature="0" />
    <path
       style="opacity:1;fill:#666666;stroke-width:0.26458332"
       d="m 69.033703,94.585469 c 0.05872,0.08965 0.116943,0.179689 0.174667,0.270109 -0.05772,-0.09042 -0.115948,-0.180457 -0.174667,-0.270109 z"
       id="path3888"
       inkscape:connector-curvature="0" />
    <path
       style="opacity:1;fill:#666666;stroke-width:0.26458332"
       d="m 69.208628,110.08014 c -0.05907,0.13236 -0.117467,0.26492 -0.175183,0.39766 0.05772,-0.13274 0.116109,-0.2653 0.175183,-0.39766 z"
       id="path3886"
       inkscape:connector-curvature="0" />
    <path
       style="opacity:1;fill:#666666;stroke-width:0.26458332"
       d="m 69.026468,97.399303 c 0.06396,0.127932 0.127002,0.256455 0.189137,0.385565 -0.06213,-0.12911 -0.125182,-0.257633 -0.189137,-0.385565 z"
       id="path3884"
       inkscape:connector-curvature="0" />
    <path
       style="opacity:1;fill:#666666;stroke-width:0.26458332"
       d="m 69.169357,113.75769 c -0.03256,0.0947 -0.06477,0.18951 -0.09664,0.28435 0.03186,-0.0948 0.06408,-0.18962 0.09664,-0.28435 z"
       id="path3882"
       inkscape:connector-curvature="0" />
    <path
       style="opacity:1;fill:#666666;stroke-width:0.26458332"
       d="m 69.028536,100.41657 c 0.06319,0.17295 0.12486,0.34671 0.185001,0.52127 -0.06014,-0.17456 -0.12181,-0.34832 -0.185001,-0.52127 z"
       id="path3880"
       inkscape:connector-curvature="0" />
    <path
       style="opacity:1;fill:#666666;stroke-width:0.26458332"
       d="m 69.142482,117.48144 c -0.01442,0.0585 -0.02873,0.11696 -0.04289,0.17546 0.01415,-0.0585 0.02846,-0.11698 0.04289,-0.17546 z"
       id="path3878"
       inkscape:connector-curvature="0" />
    <path
       style="opacity:1;fill:#666666;stroke-width:0.26458332"
       d="m 69.039388,110.4619 c 0.05695,0.24213 0.111389,0.48485 0.163297,0.72812 -0.05191,-0.24327 -0.106344,-0.48599 -0.163297,-0.72812 z"
       id="path3876"
       inkscape:connector-curvature="0" />
    <path
       style="opacity:1;fill:#666666;stroke-width:0.26458332"
       d="m 69.056441,113.92112 c 0.04832,0.35281 0.09139,0.70631 0.129191,1.0604 -0.0378,-0.35409 -0.08087,-0.70759 -0.129191,-1.0604 z"
       id="path3874"
       inkscape:connector-curvature="0" />
    <path
       style="opacity:1;fill:#666666;stroke-width:0.26458332"
       d="m 69.126722,114.04204 c -0.0038,0.0255 -0.0076,0.051 -0.01137,0.0765 0.0038,-0.0255 0.0076,-0.051 0.01137,-0.0765 z"
       id="path3869"
       inkscape:connector-curvature="0" />
    <path
       style="color:#000000;font-style:normal;font-variant:normal;font-weight:normal;font-stretch:normal;font-size:medium;line-height:normal;font-family:sans-serif;font-variant-ligatures:normal;font-variant-position:normal;font-variant-caps:normal;font-variant-numeric:normal;font-variant-alternates:normal;font-feature-settings:normal;text-indent:0;text-align:start;text-decoration:none;text-decoration-line:none;text-decoration-style:solid;text-decoration-color:#000000;letter-spacing:normal;word-spacing:normal;text-transform:none;writing-mode:lr-tb;direction:ltr;text-orientation:mixed;dominant-baseline:auto;baseline-shift:baseline;text-anchor:start;white-space:normal;shape-padding:0;clip-rule:nonzero;display:inline;overflow:visible;visibility:visible;opacity:1;isolation:auto;mix-blend-mode:normal;color-interpolation:sRGB;color-interpolation-filters:linearRGB;solid-color:#000000;solid-opacity:1;vector-effect:none;fill:#000000;fill-opacity:1;fill-rule:nonzero;stroke:none;stroke-width:4;stroke-linecap:butt;stroke-linejoin:miter;stroke-miterlimit:4;stroke-dasharray:none;stroke-dashoffset:0;stroke-opacity:1;color-rendering:auto;image-rendering:auto;shape-rendering:auto;text-rendering:auto;enable-background:accumulate"
       d="m 14.816393,95.241862 v 1.999877 21.152191 L 111.3087,99.178124 V 76.026049 Z"
       id="path3940"
       inkscape:connector-curvature="0" />
    <rect
       style="opacity:1;fill:#ffffff;fill-opacity:1;stroke:none;stroke-width:4.03908157;stroke-miterlimit:4;stroke-dasharray:none"
       id="rect3932"
       width="94.307388"
       height="19.152218"
       x="17.146797"
       y="100.19205"
       transform="matrix(0.98074188,-0.19530836,0,1,0,0)" />
    <text
       xml:space="preserve"
       style="font-style:normal;font-weight:normal;font-size:17.45474815px;line-height:1.25;font-family:sans-serif;letter-spacing:0px;word-spacing:0px;opacity:1;fill:#000000;fill-opacity:1;stroke:none;stroke-width:0.26458332"
       x="18.17672"
       y="115.46568"
       id="text3930"
       transform="skewY(-11.262738)"><tspan
         sodipodi:role="line"
         id="tspan3928"
         x="18.17672"
         y="115.46568"
         style="font-style:normal;font-variant:normal;font-weight:normal;font-stretch:normal;font-size:17.45474815px;font-family:'Tw Cen MT Condensed Extra Bold';-inkscape-font-specification:'Tw Cen MT Condensed Extra Bold, Normal';font-variant-ligatures:normal;font-variant-caps:normal;font-variant-numeric:normal;font-feature-settings:normal;text-align:start;writing-mode:lr-tb;text-anchor:start;stroke-width:0.26458332">-VECTORIZED-</tspan></text>
    <g
       aria-label="WITH INKSCAPE"
       style="font-style:normal;font-weight:normal;font-size:5.62324667px;line-height:1.25;font-family:sans-serif;letter-spacing:0.5291667px;word-spacing:0px;opacity:1;fill:#ffffff;fill-opacity:1;stroke:none;stroke-width:0.26458332"
       id="text3959">
      <path
         d="m 44.065137,123.04782 -3.466051,2.41464 -0.465124,-0.3982 1.554243,-3.13691 -2.845329,2.03158 -0.454696,-0.38927 1.837071,-3.80926 0.42341,0.3625 -1.557815,3.14108 2.853072,-2.03218 0.419238,0.35891 -1.583415,3.16255 2.880758,-2.05186 z"
         style="letter-spacing:0.5291667px;fill:#ffffff;stroke-width:0.26458332"
         id="path3967"
         inkscape:connector-curvature="0" />
      <path
         d="m 43.75332,127.64078 -1.352657,-0.88141 0.227847,-0.34967 0.448586,0.29231 1.776312,-2.72602 -0.448585,-0.2923 0.227847,-0.34967 1.352658,0.88141 -0.227848,0.34967 -0.448585,-0.29231 -1.776312,2.72602 0.448585,0.29231 z"
         style="letter-spacing:0.5291667px;fill:#ffffff;stroke-width:0.26458332"
         id="path3969"
         inkscape:connector-curvature="0" />
      <path
         d="m 49.251111,126.52626 -1.298005,-0.67 -1.6536,3.20353 -0.483092,-0.24936 1.6536,-3.20353 -1.298004,-0.67001 0.221655,-0.42941 3.079101,1.58937 z"
         style="letter-spacing:0.5291667px;fill:#ffffff;stroke-width:0.26458332"
         id="path3971"
         inkscape:connector-curvature="0" />
      <path
         d="m 51.537642,131.2237 -0.510985,-0.18562 0.683404,-1.88136 -1.917486,-0.69652 -0.683404,1.88135 -0.510985,-0.18561 1.395869,-3.84272 0.510985,0.18562 -0.547473,1.50715 1.917486,0.69653 0.547473,-1.50715 0.510986,0.18561 z"
         style="letter-spacing:0.5291667px;fill:#ffffff;stroke-width:0.26458332"
         id="path3973"
         inkscape:connector-curvature="0" />
      <path
         d="m 56.983202,132.42474 -1.592781,-0.26385 0.06821,-0.41174 0.528218,0.0875 0.53174,-3.20994 -0.528218,-0.0875 0.06821,-0.41174 1.592781,0.26385 -0.06821,0.41174 -0.528218,-0.0875 -0.53174,3.20994 0.528218,0.0875 z"
         style="letter-spacing:0.5291667px;fill:#ffffff;stroke-width:0.26458332"
         id="path3975"
         inkscape:connector-curvature="0" />
      <path
         d="m 61.546371,132.79215 -0.671733,-0.0361 -1.739296,-3.75613 -0.196389,3.65203 -0.507227,-0.0273 0.219538,-4.08249 0.841722,0.0453 1.586409,3.42894 0.179287,-3.33399 0.507226,0.0273 z"
         style="letter-spacing:0.5291667px;fill:#ffffff;stroke-width:0.26458332"
         id="path3977"
         inkscape:connector-curvature="0" />
      <path
         d="m 66.442268,132.50292 -0.70347,0.0554 -1.755242,-1.68774 -0.371032,0.4644 0.108927,1.38231 -0.541973,0.0427 -0.321173,-4.07575 0.541973,-0.0427 0.167597,2.12683 1.811428,-2.28278 0.656938,-0.0518 -1.669277,2.05951 z"
         style="letter-spacing:0.5291667px;fill:#ffffff;stroke-width:0.26458332"
         id="path3979"
         inkscape:connector-curvature="0" />
      <path
         d="m 70.240492,130.55822 q 0.04888,0.23382 -0.01356,0.4853 -0.05975,0.25092 -0.2228,0.45051 -0.179054,0.21695 -0.446405,0.37382 -0.264663,0.15631 -0.667808,0.24058 -0.432709,0.0905 -0.796268,0.0823 -0.360871,-0.009 -0.751474,-0.0926 l -0.139332,-0.66653 0.03763,-0.008 q 0.356514,0.18915 0.782936,0.24307 0.426423,0.0539 0.775815,-0.0191 0.494524,-0.10337 0.729897,-0.34612 0.23806,-0.24332 0.173451,-0.5524 -0.05562,-0.26607 -0.21372,-0.36486 -0.155412,-0.0994 -0.436095,-0.11361 -0.212809,-0.0116 -0.456624,0.003 -0.241128,0.0139 -0.515752,0.0152 -0.555748,-0.002 -0.870505,-0.21915 -0.312631,-0.22077 -0.404208,-0.65885 -0.10506,-0.50259 0.252729,-0.91119 0.357227,-0.41128 1.010321,-0.5478 0.421959,-0.0882 0.790893,-0.0812 0.368935,0.007 0.665106,0.0685 l 0.131466,0.62891 -0.03763,0.008 q -0.2689,-0.14575 -0.668886,-0.19398 -0.397861,-0.0515 -0.787568,0.03 -0.427333,0.0893 -0.650953,0.32121 -0.220933,0.23132 -0.162503,0.51084 0.05225,0.24995 0.211032,0.36542 0.158783,0.11548 0.499718,0.12275 0.179874,0.002 0.508251,-0.0109 0.328377,-0.0125 0.560561,-0.002 0.470867,0.025 0.74663,0.217 0.275763,0.192 0.365655,0.62203 z"
         style="letter-spacing:0.5291667px;fill:#ffffff;stroke-width:0.26458332"
         id="path3981"
         inkscape:connector-curvature="0" />
      <path
         d="m 74.715841,129.99709 q -0.120996,0.11184 -0.218763,0.20688 -0.09517,0.0941 -0.26116,0.21871 -0.141065,0.10428 -0.316069,0.20292 -0.171508,0.10034 -0.394542,0.17789 -0.420135,0.14608 -0.805639,0.14931 -0.383813,-2.6e-4 -0.725439,-0.16345 -0.334636,-0.15981 -0.606337,-0.48975 -0.272604,-0.33254 -0.447546,-0.83566 -0.165924,-0.47719 -0.161821,-0.90013 0.0041,-0.42294 0.168082,-0.77065 0.158904,-0.33723 0.460433,-0.59033 0.304122,-0.254 0.729444,-0.40189 0.31121,-0.10821 0.645979,-0.14031 0.337361,-0.033 0.78183,0.0247 l 0.211913,0.60945 -0.0389,0.0135 q -0.411872,-0.15621 -0.768059,-0.16899 -0.356187,-0.0128 -0.714079,0.11167 -0.293057,0.1019 -0.495693,0.27991 -0.200945,0.17453 -0.315642,0.43824 -0.111314,0.25673 -0.108755,0.59014 0.0042,0.32992 0.139514,0.71893 0.141577,0.40717 0.352399,0.66235 0.213417,0.25429 0.451201,0.378 0.24827,0.12879 0.521921,0.13829 0.275344,0.006 0.54506,-0.0878 0.370859,-0.12895 0.65085,-0.36875 0.279992,-0.2398 0.474302,-0.59224 l 0.03631,-0.0126 z"
         style="letter-spacing:0.5291667px;fill:#ffffff;stroke-width:0.26458332"
         id="path3983"
         inkscape:connector-curvature="0" />
      <path
         d="m 78.891106,128.30548 -0.518142,0.25918 -0.868282,-0.83976 -1.581438,0.79105 0.151232,1.19843 -0.493585,0.24689 -0.498024,-4.32221 0.648291,-0.32428 z m -1.745035,-0.92311 -1.538835,-1.47448 0.25453,2.1169 z"
         style="letter-spacing:0.5291667px;fill:#ffffff;stroke-width:0.26458332"
         id="path3985"
         inkscape:connector-curvature="0" />
      <path
         d="m 80.520965,123.83589 q 0.150146,0.22659 0.19895,0.47423 0.04958,0.24383 0.0017,0.47977 -0.05946,0.29302 -0.240641,0.54153 -0.182697,0.24622 -0.548913,0.48888 l -0.453192,0.3003 0.841732,1.27031 -0.453193,0.30029 -2.258267,-3.40809 0.924695,-0.61272 q 0.306706,-0.20323 0.554452,-0.29164 0.246229,-0.0907 0.483824,-0.09 0.281,0.002 0.515201,0.12634 0.23649,0.12327 0.433653,0.42082 z m -0.46392,0.32387 q -0.116781,-0.17624 -0.265028,-0.26576 -0.148247,-0.0895 -0.328733,-0.0885 -0.15688,0.002 -0.318505,0.0661 -0.160853,0.0605 -0.376005,0.20304 l -0.448614,0.29726 0.902397,1.36186 0.382238,-0.25328 q 0.274662,-0.18199 0.414476,-0.3438 0.138298,-0.16411 0.174592,-0.34296 0.03478,-0.18115 -0.0021,-0.33128 -0.0346,-0.15164 -0.134702,-0.3027 z"
         style="letter-spacing:0.5291667px;fill:#ffffff;stroke-width:0.26458332"
         id="path3987"
         inkscape:connector-curvature="0" />
      <path
         d="m 85.144276,123.71079 -2.057418,1.73847 -2.638718,-3.12283 2.057419,-1.73847 0.311896,0.36912 -1.64216,1.38758 0.723034,0.85569 1.64216,-1.38759 0.311897,0.36912 -1.64216,1.38759 0.979994,1.15979 1.642159,-1.38759 z"
         style="letter-spacing:0.5291667px;fill:#ffffff;stroke-width:0.26458332"
         id="path3989"
         inkscape:connector-curvature="0" />
    </g>
    <path
       sodipodi:type="star"
       style="opacity:1;fill:#ececec;fill-opacity:1;stroke:none;stroke-width:4;stroke-miterlimit:4;stroke-dasharray:none"
       id="path4004"
       sodipodi:sides="5"
       sodipodi:cx="62.151581"
       sodipodi:cy="119.65214"
       sodipodi:r1="6.640511"
       sodipodi:r2="2.4901917"
       sodipodi:arg1="0.96007036"
       sodipodi:arg2="1.5883889"
       inkscape:flatsided="false"
       inkscape:rounded="0"
       inkscape:randomized="0"
       d="m 65.959664,125.09226 -3.85189,-2.95032 -3.953291,2.81299 1.615614,-4.57506 -3.896942,-2.89055 4.850395,0.12277 1.544848,-4.59944 1.382095,4.65094 4.85171,0.0479 -3.996213,2.75167 z"
       inkscape:transform-center-x="-0.036097837"
       inkscape:transform-center-y="-0.59968384" />
    <rect
       style="opacity:1;fill:#000000;fill-opacity:1;stroke:none;stroke-width:3.99999976;stroke-miterlimit:4;stroke-dasharray:none"
       id="rect4026"
       width="17.045704"
       height="33.094051"
       x="61.110661"
       y="50.109299" />
    <circle
       style="opacity:1;fill:#ffffff;fill-opacity:1;stroke:none;stroke-width:4;stroke-miterlimit:4;stroke-dasharray:none"
       id="path4006"
       cx="61.473339"
       cy="66.429649"
       r="15.95768" />
    <rect
       style="opacity:0.5;fill:#f9f9f9;fill-opacity:1;stroke:none;stroke-width:4;stroke-miterlimit:4;stroke-dasharray:none"
       id="rect4010"
       width="4.261426"
       height="4.261426"
       x="56.939907"
       y="59.085491" />
    <rect
       style="opacity:1;fill:#000000;fill-opacity:1;stroke:none;stroke-width:4;stroke-miterlimit:4;stroke-dasharray:none"
       id="rect4012"
       width="19.584425"
       height="21.216461"
       x="76.604736"
       y="17.625893"
       transform="rotate(29.112593)" />
    <circle
       style="opacity:1;fill:#ffffff;fill-opacity:1;stroke:none;stroke-width:4;stroke-miterlimit:4;stroke-dasharray:none"
       id="path4020"
       cx="61.745342"
       cy="66.70166"
       r="5.9841304" />
    <text
       xml:space="preserve"
       style="font-style:normal;font-weight:normal;font-size:10.58333302px;line-height:1.25;font-family:sans-serif;letter-spacing:0px;word-spacing:0px;fill:#000000;fill-opacity:1;stroke:none;stroke-width:0.26458332"
       x="39.712864"
       y="122.82555"
       id="text3896"><tspan
         sodipodi:role="line"
         id="tspan3894"
         x="39.712864"
         y="132.48105"
         style="stroke-width:0.26458332" /></text>
  </g>
</svg>
